# xmcd
#
# Track frame offsets: 
#        150
#        14078
#        29249
#        45287
#        66752
#        79065
#        98352
#        110964
#        125305
#        138284
#        157442
#        172441
#        190056
#
# Disc length: 2815 seconds
#
# Revision: 1
# Processed by: cddbd v1.5.2PL0 Copyright (c) Steve Scherf et al.
# Submitted via: ExactAudioCopy v1.0b3
#
DISCID=bb0afd0d
DTITLE=Binder, Dennis - Hole In That Jug
DYEAR=2007
DGENRE=Blues
TTITLE0=Must Be a Hole in That Jug
TTITLE1=Big Leg Mama
TTITLE2=She's Somethin' Else
TTITLE3=I'm Lonesome
TTITLE4=You Got Me Way Down Here
TTITLE5=Funky Butt
TTITLE6=Love Call
TTITLE7=Early Times
TTITLE8=I Don't Want Nobody Messin' Around with Me
TTITLE9=Why Everybody Sings the Blues
TTITLE10=Terrorist on the Loose
TTITLE11=Everybody Needs a Miracle
TTITLE12=Goin' Home
EXTD=
EXTT0=
EXTT1=
EXTT2=
EXTT3=
EXTT4=
EXTT5=
EXTT6=
EXTT7=
EXTT8=
EXTT9=
EXTT10=
EXTT11=
EXTT12=
PLAYORDER=
